{
    "asset" : {
        "generator" : "Khronos glTF Blender I/O v1.3.48",
        "version" : "2.0"
    },
    "scene" : 0,
    "scenes" : [
        {
            "name" : "Scene",
            "nodes" : [
                0,
                1
            ]
        }
    ],
    "nodes" : [
        {
            "mesh" : 0,
            "name" : "Sphere.002_Sphere.001"
        },
        {
            "mesh" : 1,
            "name" : "Sphere.001_Sphere.003_Sphere.001_Sphere.001"
        }
    ],
    "materials" : [
        {
            "doubleSided" : true,
            "emissiveFactor" : [
                0,
                0,
                0
            ],
            "name" : "capsule02.002",
            "pbrMetallicRoughness" : {
                "baseColorFactor" : [
                    0.800000011920929,
                    0.3095709979534149,
                    0,
                    1
                ],
                "metallicFactor" : 0.2227270007133484,
                "roughnessFactor" : 0.05940890312194824
            }
        },
        {
            "doubleSided" : true,
            "emissiveFactor" : [
                0,
                0,
                0
            ],
            "name" : "capsule01.002",
            "pbrMetallicRoughness" : {
                "baseColorFactor" : [
                    0.800000011920929,
                    0.3095709979534149,
                    0,
                    1
                ],
                "metallicFactor" : 0.2227270007133484,
                "roughnessFactor" : 0.05940890312194824
            }
        }
    ],
    "meshes" : [
        {
            "name" : "Sphere.002_Sphere.002",
            "primitives" : [
                {
                    "attributes" : {
                        "POSITION" : 0,
                        "NORMAL" : 1,
                        "TEXCOORD_0" : 2
                    },
                    "indices" : 3,
                    "material" : 0
                }
            ]
        },
        {
            "name" : "Sphere.001_Sphere.003_Sphere.001_Sphere.002",
            "primitives" : [
                {
                    "attributes" : {
                        "POSITION" : 4,
                        "NORMAL" : 5,
                        "TEXCOORD_0" : 6
                    },
                    "indices" : 7,
                    "material" : 1
                }
            ]
        }
    ],
    "accessors" : [
        {
            "bufferView" : 0,
            "componentType" : 5126,
            "count" : 3947,
            "max" : [
                0.0022727176547050476,
                0.07259887456893921,
                0.06649766117334366
            ],
            "min" : [
                -0.20816516876220703,
                -0.07289811968803406,
                -0.07900714874267578
            ],
            "type" : "VEC3"
        },
        {
            "bufferView" : 1,
            "componentType" : 5126,
            "count" : 3947,
            "type" : "VEC3"
        },
        {
            "bufferView" : 2,
            "componentType" : 5126,
            "count" : 3947,
            "type" : "VEC2"
        },
        {
            "bufferView" : 3,
            "componentType" : 5123,
            "count" : 20502,
            "type" : "SCALAR"
        },
        {
            "bufferView" : 4,
            "componentType" : 5126,
            "count" : 3700,
            "max" : [
                0.23799484968185425,
                0.07562907040119171,
                0.06865789741277695
            ],
            "min" : [
                0.0005434751510620117,
                -0.07664293050765991,
                -0.08366847783327103
            ],
            "type" : "VEC3"
        },
        {
            "bufferView" : 5,
            "componentType" : 5126,
            "count" : 3700,
            "type" : "VEC3"
        },
        {
            "bufferView" : 6,
            "componentType" : 5126,
            "count" : 3700,
            "type" : "VEC2"
        },
        {
            "bufferView" : 7,
            "componentType" : 5123,
            "count" : 20505,
            "type" : "SCALAR"
        }
    ],
    "bufferViews" : [
        {
            "buffer" : 0,
            "byteLength" : 47364,
            "byteOffset" : 0
        },
        {
            "buffer" : 0,
            "byteLength" : 47364,
            "byteOffset" : 47364
        },
        {
            "buffer" : 0,
            "byteLength" : 31576,
            "byteOffset" : 94728
        },
        {
            "buffer" : 0,
            "byteLength" : 41004,
            "byteOffset" : 126304
        },
        {
            "buffer" : 0,
            "byteLength" : 44400,
            "byteOffset" : 167308
        },
        {
            "buffer" : 0,
            "byteLength" : 44400,
            "byteOffset" : 211708
        },
        {
            "buffer" : 0,
            "byteLength" : 29600,
            "byteOffset" : 256108
        },
        {
            "buffer" : 0,
            "byteLength" : 41010,
            "byteOffset" : 285708
        }
    ],
    "buffers" : [
        {
            "byteLength" : 326720,
            "uri" : "data:application/octet-stream;base64,"
        }
    ]
}
