{
    "asset" : {
        "generator" : "Khronos glTF Blender I/O v1.3.48",
        "version" : "2.0"
    },
    "scene" : 0,
    "scenes" : [
        {
            "name" : "Scene",
            "nodes" : [
                0
            ]
        }
    ],
    "nodes" : [
        {
            "mesh" : 0,
            "name" : "texture"
        }
    ],
    "materials" : [
        {
            "doubleSided" : true,
            "emissiveFactor" : [
                0,
                0,
                0
            ],
            "name" : "texture",
            "pbrMetallicRoughness" : {
                "baseColorFactor" : [
                    1,
                    1,
                    1,
                    1
                ],
                "metallicFactor" : 0,
                "roughnessFactor" : 0.5
            }
        },
        {
            "doubleSided" : true,
            "emissiveFactor" : [
                0,
                0,
                0
            ],
            "name" : "Glass_-_Frosted",
            "pbrMetallicRoughness" : {
                "baseColorFactor" : [
                    0.019381999969482422,
                    0.030712999403476715,
                    0.03560100123286247,
                    1
                ],
                "metallicFactor" : 1,
                "roughnessFactor" : 0.281818151473999
            }
        }
    ],
    "meshes" : [
        {
            "name" : "texture",
            "primitives" : [
                {
                    "attributes" : {
                        "POSITION" : 0,
                        "NORMAL" : 1,
                        "TEXCOORD_0" : 2
                    },
                    "indices" : 3,
                    "material" : 0
                },
                {
                    "attributes" : {
                        "POSITION" : 4,
                        "NORMAL" : 5,
                        "TEXCOORD_0" : 6
                    },
                    "indices" : 7,
                    "material" : 1
                }
            ]
        }
    ],
    "accessors" : [
        {
            "bufferView" : 0,
            "componentType" : 5126,
            "count" : 22,
            "max" : [
                32.80698776245117,
                6.48879861831665,
                25.02212905883789
            ],
            "min" : [
                19.080698013305664,
                -68.81884765625,
                -24.446361541748047
            ],
            "type" : "VEC3"
        },
        {
            "bufferView" : 1,
            "componentType" : 5126,
            "count" : 22,
            "type" : "VEC3"
        },
        {
            "bufferView" : 2,
            "componentType" : 5126,
            "count" : 22,
            "type" : "VEC2"
        },
        {
            "bufferView" : 3,
            "componentType" : 5123,
            "count" : 60,
            "type" : "SCALAR"
        },
        {
            "bufferView" : 4,
            "componentType" : 5126,
            "count" : 4071,
            "max" : [
                31.32300567626953,
                23.05171012878418,
                32.409786224365234
            ],
            "min" : [
                -32.6769905090332,
                -73.4605712890625,
                -31.525856018066406
            ],
            "type" : "VEC3"
        },
        {
            "bufferView" : 5,
            "componentType" : 5126,
            "count" : 4071,
            "type" : "VEC3"
        },
        {
            "bufferView" : 6,
            "componentType" : 5126,
            "count" : 4071,
            "type" : "VEC2"
        },
        {
            "bufferView" : 7,
            "componentType" : 5123,
            "count" : 19542,
            "type" : "SCALAR"
        }
    ],
    "bufferViews" : [
        {
            "buffer" : 0,
            "byteLength" : 264,
            "byteOffset" : 0
        },
        {
            "buffer" : 0,
            "byteLength" : 264,
            "byteOffset" : 264
        },
        {
            "buffer" : 0,
            "byteLength" : 176,
            "byteOffset" : 528
        },
        {
            "buffer" : 0,
            "byteLength" : 120,
            "byteOffset" : 704
        },
        {
            "buffer" : 0,
            "byteLength" : 48852,
            "byteOffset" : 824
        },
        {
            "buffer" : 0,
            "byteLength" : 48852,
            "byteOffset" : 49676
        },
        {
            "buffer" : 0,
            "byteLength" : 32568,
            "byteOffset" : 98528
        },
        {
            "buffer" : 0,
            "byteLength" : 39084,
            "byteOffset" : 131096
        }
    ],
    "buffers" : [
        {
            "byteLength" : 170180,
            "uri" : "data:application/octet-stream;base64,"
        }
    ]
}
