{
    "asset" : {
        "generator" : "Khronos glTF Blender I/O v1.3.48",
        "version" : "2.0"
    },
    "scene" : 0,
    "scenes" : [
        {
            "name" : "Scene",
            "nodes" : [
                0
            ]
        }
    ],
    "nodes" : [
        {
            "mesh" : 0,
            "name" : "Blue_on_blue_bottle_v25.002"
        }
    ],
    "materials" : [
        {
            "doubleSided" : true,
            "emissiveFactor" : [
                0,
                0,
                0
            ],
            "name" : "Paek_(Beige)",
            "pbrMetallicRoughness" : {
                "baseColorFactor" : [
                    0.019381999969482422,
                    0.030712999403476715,
                    0.03560100123286247,
                    1
                ],
                "metallicFactor" : 0,
                "roughnessFactor" : 0.5
            }
        }
    ],
    "meshes" : [
        {
            "name" : "Blue_on_blue_bottle_v25.002",
            "primitives" : [
                {
                    "attributes" : {
                        "POSITION" : 0,
                        "NORMAL" : 1,
                        "TEXCOORD_0" : 2
                    },
                    "indices" : 3,
                    "material" : 0
                }
            ]
        }
    ],
    "accessors" : [
        {
            "bufferView" : 0,
            "componentType" : 5126,
            "count" : 1210,
            "max" : [
                32.09254455566406,
                10.744894981384277,
                31.869123458862305
            ],
            "min" : [
                -31.82950210571289,
                -10.562531471252441,
                -31.87421417236328
            ],
            "type" : "VEC3"
        },
        {
            "bufferView" : 1,
            "componentType" : 5126,
            "count" : 1210,
            "type" : "VEC3"
        },
        {
            "bufferView" : 2,
            "componentType" : 5126,
            "count" : 1210,
            "type" : "VEC2"
        },
        {
            "bufferView" : 3,
            "componentType" : 5123,
            "count" : 3972,
            "type" : "SCALAR"
        }
    ],
    "bufferViews" : [
        {
            "buffer" : 0,
            "byteLength" : 14520,
            "byteOffset" : 0
        },
        {
            "buffer" : 0,
            "byteLength" : 14520,
            "byteOffset" : 14520
        },
        {
            "buffer" : 0,
            "byteLength" : 9680,
            "byteOffset" : 29040
        },
        {
            "buffer" : 0,
            "byteLength" : 7944,
            "byteOffset" : 38720
        }
    ],
    "buffers" : [
        {
            "byteLength" : 46664,
            "uri" : "data:application/octet-stream;base64,"
        }
    ]
}
