{
    "asset" : {
        "generator" : "Khronos glTF Blender I/O v1.3.48",
        "version" : "2.0"
    },
    "scene" : 0,
    "scenes" : [
        {
            "name" : "Scene",
            "nodes" : [
                0
            ]
        }
    ],
    "nodes" : [
        {
            "mesh" : 0,
            "name" : "Sphere_Sphere.012"
        }
    ],
    "materials" : [
        {
            "doubleSided" : true,
            "emissiveFactor" : [
                0.042027998715639114,
                0.01144300028681755,
                0
            ],
            "name" : "1.001",
            "pbrMetallicRoughness" : {
                "baseColorFactor" : [
                    0.37626200914382935,
                    0.0886560007929802,
                    0.017642000690102577,
                    1
                ],
                "metallicFactor" : 0,
                "roughnessFactor" : 0.6555555462837219
            }
        }
    ],
    "meshes" : [
        {
            "name" : "Sphere_Sphere.024",
            "primitives" : [
                {
                    "attributes" : {
                        "POSITION" : 0,
                        "NORMAL" : 1
                    },
                    "indices" : 2,
                    "material" : 0
                }
            ]
        }
    ],
    "accessors" : [
        {
            "bufferView" : 0,
            "componentType" : 5126,
            "count" : 6082,
            "max" : [
                0.2041286826133728,
                0.06036197394132614,
                0.20337709784507751
            ],
            "min" : [
                -0.20321878790855408,
                -0.06057404354214668,
                -0.20384542644023895
            ],
            "type" : "VEC3"
        },
        {
            "bufferView" : 1,
            "componentType" : 5126,
            "count" : 6082,
            "type" : "VEC3"
        },
        {
            "bufferView" : 2,
            "componentType" : 5123,
            "count" : 36480,
            "type" : "SCALAR"
        }
    ],
    "bufferViews" : [
        {
            "buffer" : 0,
            "byteLength" : 72984,
            "byteOffset" : 0
        },
        {
            "buffer" : 0,
            "byteLength" : 72984,
            "byteOffset" : 72984
        },
        {
            "buffer" : 0,
            "byteLength" : 72960,
            "byteOffset" : 145968
        }
    ],
    "buffers" : [
        {
            "byteLength" : 218928,
            "uri" : "data:application/octet-stream;base64,"
        }
    ]
}
